{"title":"Wind (1992) [Sailing movie] Quality rip (Opt.Nordic subtitles)","uid":4675721,"size":751660110,"categoryP":"video","categoryS":"movies","magnet":"?xt=urn:btih:6f6241ddcb9cf39869129b163a9ff0c40ca8ab9f&amp;dn=Wind+%281992%29+%5BSailing+movie%5D+Quality+rip+%28Opt.Nordic+subtitles%29&amp;tr=udp%3A%2F%2Ftracker.openbittorrent.com%3A80&amp;tr=udp%3A%2F%2Fopen.demonii.com%3A1337&amp;tr=udp%3A%2F%2Ftracker.coppersurfer.tk%3A6969&amp;tr=udp%3A%2F%2Fexodus.desync.com%3A6969","seeders":1,"leechers":0,"uploader":"Kuthumi","files":-1,"time":1232894666,"description":" &lt;a href=&quot;http://www.imdb.com/title/tt0105824/&quot; rel=&quot;nofollow&quot; target=&quot;_NEW&quot;&gt;http://www.imdb.com/title/tt0105824/&lt;/a&gt;\n\nWith Matthew Modine, Jennifer Grey and Stellan SkarsgÃƒÂ¥rd.\n\nOptional subtitles in separate idx/sub files: Danish, Finnish, Norwegian, Swedish.\n\nGreat sailing drama: Will Parker loses the Americas Cup, the worlds biggest sailing prize, to the Australians and decides to form his own syndicate to win it back. \n\nMy new ripping procedure now produces decent quality for such a long film compressed into just 700 MiB. I enclose a sample for ye weak in faith. \n\nWidescreen DVDrip XviD 2-pass 720x368, really great stereo sound AC3.\nBurn tested, runs well in both my standalone DivX players.\n\nFormat/Info                      : Audio Video Interleave\nFile size                        : 696 MiB\nDuration                         : 2h 0mn\nOveral bit rate                  : 808 Kbps\n\nVideo\nFormat                           : MPEG-4 Visual\nFormat profile                   : Streaming Video@L1\nFormat settings, BVOP            : Yes\nFormat settings, QPel            : No\nFormat settings, GMC             : No warppoints\nFormat settings, Matrix          : Default\nMuxing mode                      : Packet Bitstream\nCodec ID                         : XVID\nCodec ID/Hint                    : XviD\nDuration                         : 2h 0mn\nBit rate                         : 670 Kbps\nWidth                            : 720 pixels\nHeight                           : 368 pixels\nDisplay aspect ratio             : 1.957\nFrame rate                       : 25.000 fps\nResolution                       : 8 bits\nColorimetry                      : 4:2:0\nScan type                        : Progressive\nBits/(Pixel*Frame)               : 0.101\nStream size                      : 577 MiB\nWriting library                  : XviD 1.2.0.dev47 (UTC 2006-11-01)\n\nAudio\nFormat                           : MPEG Audio\nFormat version                   : Version 1\nFormat profile                   : Layer 3\nCodec ID                         : 55\nCodec ID/Hint                    : MP3\nDuration                         : 2h 0mn\nBit rate mode                    : Constant\nBit rate                         : 128 Kbps\nMinimum bit rate                 : 128 Kbps\nChannel(s)                       : 2 channels\nSampling rate                    : 48.0 KHz\nResolution                       : 16 bits\nStream size                      : 110 MiB\nWriting library                  : LAME3.97 \nEncoding settings                : CBR\n\nSource: PAL native (note that PAL/NTSC will give no problems for avi files).","torrent":{"xt":"urn:btih:6f6241ddcb9cf39869129b163a9ff0c40ca8ab9f","amp;dn":"Wind+%281992%29+%5BSailing+movie%5D+Quality+rip+%28Opt.Nordic+subtitles%29","amp;tr":["udp%3A%2F%2Ftracker.openbittorrent.com%3A80","udp%3A%2F%2Fopen.demonii.com%3A1337","udp%3A%2F%2Ftracker.coppersurfer.tk%3A6969","udp%3A%2F%2Fexodus.desync.com%3A6969"],"infoHash":"6f6241ddcb9cf39869129b163a9ff0c40ca8ab9f","infoHashBuffer":{"type":"Buffer","data":[111,98,65,221,203,156,243,152,105,18,155,22,58,159,240,196,12,168,171,159]},"announce":[],"urlList":[]}}